<svg xmlns="http://www.w3.org/2000/svg" xmlns:xlink="http://www.w3.org/1999/xlink" width="500" zoomAndPan="magnify" viewBox="0 0 375 374.999991" height="500" preserveAspectRatio="xMidYMid meet" version="1.0"><defs><g/></defs><g fill="#ff5541" fill-opacity="1"><g transform="translate(56.960494, 212.693879)"><g><path d="M 54.5 -19.265625 C 55.019531 -19.347656 55.554688 -19.378906 56.109375 -19.359375 C 56.660156 -19.335938 57.195312 -19.1875 57.71875 -18.90625 C 57.8125 -18.820312 57.894531 -18.671875 57.96875 -18.453125 C 58.039062 -18.234375 58.097656 -18.023438 58.140625 -17.828125 C 58.140625 -17.742188 58.09375 -17.640625 58 -17.515625 C 57.90625 -17.398438 57.8125 -17.285156 57.71875 -17.171875 C 57.476562 -17.046875 57.238281 -16.953125 57 -16.890625 C 53.894531 -16.273438 51.015625 -15.238281 48.359375 -13.78125 C 45.710938 -12.332031 43.195312 -10.648438 40.8125 -8.734375 C 37.550781 -6.191406 34.546875 -3.40625 31.796875 -0.375 C 29.046875 2.65625 26.453125 5.820312 24.015625 9.125 C 19.390625 15.34375 15.085938 21.796875 11.109375 28.484375 C 10.203125 30.023438 9.269531 31.535156 8.3125 33.015625 C 8.175781 33.296875 8.015625 33.554688 7.828125 33.796875 C 7.390625 34.515625 6.910156 35.1875 6.390625 35.8125 C 4.992188 37.289062 3.363281 37.648438 1.5 36.890625 C 0.738281 36.503906 0.296875 35.988281 0.171875 35.34375 C 0.0546875 34.707031 0.078125 34.03125 0.234375 33.3125 C 1.273438 23.882812 1.894531 14.460938 2.09375 5.046875 C 2.457031 -7.578125 2.695312 -20.195312 2.8125 -32.8125 C 2.9375 -45.4375 2.738281 -58.050781 2.21875 -70.65625 C 1.894531 -78.21875 1.46875 -85.800781 0.9375 -93.40625 C 0.707031 -96.882812 0.472656 -100.375 0.234375 -103.875 C 0.234375 -104.15625 0.195312 -104.414062 0.125 -104.65625 C 0.0820312 -105.375 0.0625 -106.09375 0.0625 -106.8125 C 0.175781 -107.914062 0.796875 -108.535156 1.921875 -108.671875 C 2.597656 -108.773438 3.203125 -108.707031 3.734375 -108.46875 C 4.265625 -108.226562 4.570312 -107.867188 4.65625 -107.390625 C 5.09375 -105.609375 5.410156 -103.816406 5.609375 -102.015625 C 5.609375 -101.492188 5.628906 -100.960938 5.671875 -100.421875 C 6.390625 -90.578125 7.007812 -80.734375 7.53125 -70.890625 C 8.050781 -61.128906 8.300781 -51.359375 8.28125 -41.578125 C 8.257812 -31.804688 8.128906 -22.019531 7.890625 -12.21875 C 7.734375 -4.207031 7.515625 3.816406 7.234375 11.859375 C 7.191406 13.734375 7.09375 15.59375 6.9375 17.4375 C 6.851562 18.5 6.789062 19.550781 6.75 20.59375 C 6.707031 21.507812 6.648438 22.445312 6.578125 23.40625 C 6.578125 23.832031 6.554688 24.265625 6.515625 24.703125 C 6.671875 24.742188 6.789062 24.785156 6.875 24.828125 C 7.03125 24.828125 7.171875 24.851562 7.296875 24.90625 C 7.535156 24.53125 7.773438 24.171875 8.015625 23.828125 C 8.648438 22.828125 9.300781 21.828125 9.96875 20.828125 C 14.40625 13.742188 19.304688 7.03125 24.671875 0.6875 C 27.390625 -2.53125 30.289062 -5.515625 33.375 -8.265625 C 36.457031 -11.015625 39.835938 -13.441406 43.515625 -15.546875 C 45.253906 -16.503906 47.019531 -17.3125 48.8125 -17.96875 C 50.601562 -18.632812 52.5 -19.066406 54.5 -19.265625 Z M 54.5 -19.265625 "/></g></g></g><g fill="#ff5541" fill-opacity="1"><g transform="translate(109.719663, 212.693879)"><g><path d="M 76.71875 -7.171875 C 75.675781 -3.804688 74.519531 -0.5625 73.25 2.5625 C 71.976562 5.695312 70.507812 8.722656 68.84375 11.640625 C 63.488281 20.585938 58.09375 27.410156 52.65625 32.109375 C 47.226562 36.816406 42.101562 39.804688 37.28125 41.078125 C 32.457031 42.347656 28.242188 42.300781 24.640625 40.9375 C 21.035156 39.570312 18.347656 37.300781 16.578125 34.125 C 14.804688 30.945312 14.300781 27.28125 15.0625 23.125 C 15.820312 18.96875 18.140625 14.722656 22.015625 10.390625 C 25.890625 6.066406 31.632812 2.066406 39.25 -1.609375 C 46.875 -5.296875 56.710938 -8.238281 68.765625 -10.4375 C 69.921875 -10.78125 70.769531 -11.320312 71.3125 -12.0625 C 71.851562 -12.800781 72.265625 -13.722656 72.546875 -14.828125 C 75.140625 -24.910156 77.171875 -35.1875 78.640625 -45.65625 C 79.753906 -54.15625 80.550781 -62.757812 81.03125 -71.46875 C 81.070312 -72.28125 81.039062 -72.753906 80.9375 -72.890625 C 80.84375 -73.035156 80.710938 -72.96875 80.546875 -72.6875 C 80.390625 -72.40625 80.226562 -72.023438 80.0625 -71.546875 C 79.894531 -71.066406 79.738281 -70.609375 79.59375 -70.171875 C 78.4375 -66.304688 76.820312 -62.039062 74.75 -57.375 C 72.675781 -52.71875 70.273438 -48.09375 67.546875 -43.5 C 64.816406 -38.90625 61.828125 -34.769531 58.578125 -31.09375 C 55.335938 -27.414062 51.96875 -24.59375 48.46875 -22.625 C 43.6875 -20.101562 39.0625 -18.929688 34.59375 -19.109375 C 30.132812 -19.296875 25.976562 -20.582031 22.125 -22.96875 C 18.28125 -25.363281 14.921875 -28.570312 12.046875 -32.59375 C 9.179688 -36.613281 6.976562 -41.175781 5.4375 -46.28125 C 2.726562 -55.363281 1.078125 -64.5 0.484375 -73.6875 C 0.160156 -77.75 0.0195312 -81.785156 0.0625 -85.796875 C 0.101562 -89.804688 0.394531 -93.78125 0.9375 -97.71875 C 1.414062 -101.5 2.273438 -105.101562 3.515625 -108.53125 C 3.753906 -109.25 4.125 -109.820312 4.625 -110.25 C 5.125 -110.6875 5.832031 -110.90625 6.75 -110.90625 C 7.550781 -110.84375 8.15625 -110.597656 8.5625 -110.171875 C 8.976562 -109.753906 9.085938 -109.1875 8.890625 -108.46875 C 7.546875 -103.882812 6.632812 -99.171875 6.15625 -94.328125 C 5.25 -84.765625 5.566406 -75.039062 7.109375 -65.15625 C 7.535156 -62.132812 8.046875 -59.097656 8.640625 -56.046875 C 9.242188 -52.992188 10.023438 -49.957031 10.984375 -46.9375 C 12.066406 -43.5 13.53125 -40.140625 15.375 -36.859375 C 17.226562 -33.578125 19.429688 -30.707031 21.984375 -28.25 C 24.535156 -25.800781 27.410156 -24.117188 30.609375 -23.203125 C 33.816406 -22.296875 37.359375 -22.515625 41.234375 -23.859375 C 44.960938 -25.335938 48.472656 -27.769531 51.765625 -31.15625 C 55.066406 -34.550781 58.097656 -38.554688 60.859375 -43.171875 C 63.628906 -47.785156 66.085938 -52.625 68.234375 -57.6875 C 70.390625 -62.75 72.210938 -67.648438 73.703125 -72.390625 C 75.191406 -77.128906 76.316406 -81.3125 77.078125 -84.9375 C 77.796875 -88.4375 78.515625 -91.898438 79.234375 -95.328125 C 79.796875 -97.828125 80.347656 -100.335938 80.890625 -102.859375 C 81.023438 -103.617188 81.304688 -104.238281 81.734375 -104.71875 C 82.171875 -105.195312 82.816406 -105.46875 83.671875 -105.53125 C 85.171875 -105.570312 86.203125 -105.296875 86.765625 -104.703125 C 87.328125 -104.109375 87.640625 -103.253906 87.703125 -102.140625 C 88.078125 -97.835938 88.195312 -93.59375 88.0625 -89.40625 C 87.757812 -81.125 87.304688 -72.867188 86.703125 -64.640625 C 86.109375 -56.421875 85.21875 -48.269531 84.03125 -40.1875 C 82.832031 -32.6875 81.375 -25.253906 79.65625 -17.890625 C 78.738281 -14.109375 77.757812 -10.535156 76.71875 -7.171875 Z M 69.265625 -4.265625 C 69.410156 -4.660156 69.484375 -5.039062 69.484375 -5.40625 C 69.484375 -5.707031 69.394531 -5.914062 69.21875 -6.03125 C 69.050781 -6.15625 68.847656 -6.1875 68.609375 -6.125 C 68.128906 -6.125 67.488281 -6.039062 66.6875 -5.875 C 65.882812 -5.71875 65.09375 -5.5625 64.3125 -5.40625 C 63.78125 -5.320312 63.332031 -5.238281 62.96875 -5.15625 C 56.601562 -3.84375 50.453125 -1.695312 44.515625 1.28125 C 38.585938 4.269531 33.460938 7.695312 29.140625 11.5625 C 24.816406 15.4375 21.914062 19.304688 20.4375 23.171875 C 19.195312 26.753906 19.1875 29.519531 20.40625 31.46875 C 21.625 33.414062 23.703125 34.53125 26.640625 34.8125 C 29.585938 35.09375 33.003906 34.515625 36.890625 33.078125 C 40.785156 31.648438 44.789062 29.320312 48.90625 26.09375 C 53.019531 22.863281 56.867188 18.726562 60.453125 13.6875 C 64.046875 8.644531 66.984375 2.660156 69.265625 -4.265625 Z M 69.265625 -4.265625 "/></g></g></g><g fill="#ff5541" fill-opacity="1"><g transform="translate(200.247741, 212.693879)"><g><path d="M 66.390625 -102.859375 C 66.972656 -100.035156 67.289062 -97.144531 67.34375 -94.1875 C 67.46875 -88.9375 67.410156 -83.679688 67.171875 -78.421875 C 66.929688 -73.160156 66.570312 -67.898438 66.09375 -62.640625 C 65.726562 -58.097656 65.367188 -53.554688 65.015625 -49.015625 C 64.734375 -45.273438 64.453125 -41.53125 64.171875 -37.78125 C 63.847656 -33.519531 63.488281 -29.238281 63.09375 -24.9375 C 62.707031 -20.675781 62.328125 -16.394531 61.953125 -12.09375 C 61.566406 -7.113281 61.210938 -2.140625 60.890625 2.828125 C 60.734375 6.179688 60.554688 9.5 60.359375 12.78125 C 60.179688 16.507812 60 20.265625 59.8125 24.046875 C 59.21875 33.328125 59 42.597656 59.15625 51.859375 C 59.15625 52.441406 59.113281 52.992188 59.03125 53.515625 C 58.875 54.078125 58.484375 54.414062 57.859375 54.53125 C 55.941406 54.894531 54.863281 54.175781 54.625 52.375 C 54.5 50.988281 54.4375 49.597656 54.4375 48.203125 C 54.4375 45.578125 54.4375 42.945312 54.4375 40.3125 C 54.320312 33.25 54.296875 26.15625 54.359375 19.03125 C 54.492188 12.382812 54.820312 5.738281 55.34375 -0.90625 C 55.925781 -8.988281 56.554688 -17.0625 57.234375 -25.125 C 57.648438 -30.0625 58.050781 -34.960938 58.4375 -39.828125 C 59.394531 -52.015625 60.328125 -64.179688 61.234375 -76.328125 C 61.710938 -83.128906 61.8125 -89.941406 61.53125 -96.765625 C 61.382812 -100.828125 60.710938 -102.925781 59.515625 -103.0625 C 58.316406 -103.207031 56.75 -101.875 54.8125 -99.0625 C 52.882812 -96.25 50.722656 -92.390625 48.328125 -87.484375 C 45.941406 -82.585938 43.46875 -77.113281 40.90625 -71.0625 C 38.34375 -65.007812 35.832031 -58.875 33.375 -52.65625 C 30.914062 -46.445312 28.644531 -40.582031 26.5625 -35.0625 C 24.476562 -29.550781 22.742188 -24.867188 21.359375 -21.015625 C 19.984375 -17.171875 19.054688 -14.597656 18.578125 -13.296875 C 18.421875 -12.929688 18.34375 -12.722656 18.34375 -12.671875 C 15.875 -6.066406 13.320312 0.503906 10.6875 7.046875 C 9.925781 8.828125 9.066406 10.570312 8.109375 12.28125 C 7.921875 12.613281 7.707031 12.972656 7.46875 13.359375 C 7.03125 14.316406 6.332031 14.957031 5.375 15.28125 C 3.988281 15.675781 2.785156 15.671875 1.765625 15.265625 C 0.742188 14.867188 0.195312 13.800781 0.125 12.0625 C 0.0390625 8.300781 0.078125 4.550781 0.234375 0.8125 C 0.316406 -1.09375 0.378906 -3.023438 0.421875 -4.984375 C 0.816406 -15.367188 1.253906 -25.765625 1.734375 -36.171875 C 2.097656 -43.148438 2.5 -50.101562 2.9375 -57.03125 C 3.28125 -62.40625 3.613281 -67.765625 3.9375 -73.109375 C 4.03125 -75.253906 4.175781 -77.382812 4.375 -79.5 C 4.757812 -83.988281 4.953125 -88.503906 4.953125 -93.046875 C 4.953125 -93.617188 4.972656 -94.195312 5.015625 -94.78125 C 5.171875 -96.257812 5.988281 -97 7.46875 -97 C 8.945312 -97 9.757812 -96.226562 9.90625 -94.6875 C 10.082031 -92.59375 10.132812 -90.46875 10.0625 -88.3125 C 10 -86.164062 9.894531 -84.019531 9.75 -81.875 C 9.75 -81.71875 9.75 -81.566406 9.75 -81.421875 C 9.550781 -78.859375 9.363281 -76.257812 9.1875 -73.625 C 8.945312 -70.84375 8.734375 -68.039062 8.546875 -65.21875 C 7.828125 -52.070312 7.128906 -38.925781 6.453125 -25.78125 C 5.972656 -16.9375 5.539062 -8.09375 5.15625 0.75 C 5.0625 3.507812 5.320312 4.851562 5.9375 4.78125 C 6.5625 4.71875 7.378906 3.738281 8.390625 1.84375 C 9.398438 -0.0390625 10.460938 -2.34375 11.578125 -5.0625 C 12.703125 -7.789062 13.742188 -10.398438 14.703125 -12.890625 C 15.660156 -15.378906 16.351562 -17.242188 16.78125 -18.484375 C 16.914062 -18.847656 17.015625 -19.109375 17.078125 -19.265625 C 18.597656 -23.410156 20.359375 -28.472656 22.359375 -34.453125 C 24.421875 -40.535156 26.6875 -47.003906 29.15625 -53.859375 C 31.625 -60.710938 34.242188 -67.460938 37.015625 -74.109375 C 39.785156 -80.765625 42.632812 -86.753906 45.5625 -92.078125 C 48.5 -97.398438 51.5 -101.570312 54.5625 -104.59375 C 55.46875 -105.5 56.445312 -106.257812 57.5 -106.875 C 59.5625 -107.976562 61.4375 -108.160156 63.125 -107.421875 C 64.820312 -106.679688 65.910156 -105.160156 66.390625 -102.859375 Z M 66.390625 -102.859375 "/></g></g></g><g fill="#ff5541" fill-opacity="1"><g transform="translate(269.6917, 212.693879)"><g><path d="M 108.984375 40.671875 C 109.179688 40.785156 109.375 40.910156 109.5625 41.046875 C 109.75 41.191406 109.894531 41.328125 110 41.453125 C 110.132812 41.765625 110.128906 42.019531 109.984375 42.21875 C 109.835938 42.425781 109.644531 42.585938 109.40625 42.703125 C 106.0625 44.367188 102.578125 45.429688 98.953125 45.890625 C 95.328125 46.347656 91.503906 46.097656 87.484375 45.140625 C 84.328125 44.359375 81.316406 43.207031 78.453125 41.6875 C 75.585938 40.164062 72.835938 38.394531 70.203125 36.375 C 64.835938 32.269531 60.019531 27.742188 55.75 22.796875 C 51.476562 17.859375 47.640625 12.539062 44.234375 6.84375 C 41.992188 3.144531 39.953125 -0.613281 38.109375 -4.4375 C 36.273438 -8.257812 34.546875 -12.125 32.921875 -16.03125 C 32.566406 -16.832031 32.207031 -17.628906 31.84375 -18.421875 C 31.738281 -18.546875 31.597656 -18.6875 31.421875 -18.84375 C 31.304688 -18.882812 31.226562 -18.945312 31.1875 -19.03125 C 30.382812 -18.425781 29.8125 -17.664062 29.46875 -16.75 C 29.332031 -16.46875 29.191406 -16.1875 29.046875 -15.90625 C 26.890625 -12.019531 24.738281 -8.140625 22.59375 -4.265625 C 19.332031 1.554688 16.082031 7.359375 12.84375 13.140625 C 11.40625 15.722656 9.914062 18.265625 8.375 20.765625 C 7.488281 22.191406 6.609375 23.644531 5.734375 25.125 C 5.410156 25.738281 4.984375 26.25 4.453125 26.65625 C 3.921875 27.070312 3.226562 27.28125 2.375 27.28125 C 1.550781 27.238281 0.945312 26.976562 0.5625 26.5 C 0.1875 26.019531 0.117188 25.421875 0.359375 24.703125 C 0.984375 23.265625 1.675781 21.875 2.4375 20.53125 C 4.25 17.226562 6.066406 13.925781 7.890625 10.625 C 13.910156 -0.300781 20.003906 -11.195312 26.171875 -22.0625 C 27.128906 -23.625 27.675781 -25.21875 27.8125 -26.84375 C 27.957031 -28.476562 27.648438 -30.296875 26.890625 -32.296875 C 24.828125 -37.660156 22.984375 -43.050781 21.359375 -48.46875 C 19.742188 -53.894531 18.238281 -59.335938 16.84375 -64.796875 C 14.5 -74.203125 12.609375 -83.617188 11.171875 -93.046875 C 11.171875 -93.140625 11.148438 -93.207031 11.109375 -93.25 C 11.109375 -93.488281 11.085938 -93.707031 11.046875 -93.90625 C 10.804688 -95.613281 11.328125 -96.46875 12.609375 -96.46875 C 14.390625 -96.707031 15.519531 -95.851562 16 -93.90625 C 16.757812 -90.832031 17.445312 -87.773438 18.0625 -84.734375 C 18.300781 -83.585938 18.515625 -82.4375 18.703125 -81.28125 C 19.660156 -76.351562 20.757812 -71.410156 22 -66.453125 C 24.78125 -56.109375 27.890625 -45.832031 31.328125 -35.625 C 31.429688 -35.425781 31.539062 -35.21875 31.65625 -35 C 31.78125 -34.78125 31.90625 -34.648438 32.03125 -34.609375 C 32.382812 -34.460938 32.640625 -34.457031 32.796875 -34.59375 C 32.960938 -34.738281 33.101562 -34.929688 33.21875 -35.171875 C 33.21875 -35.171875 33.238281 -35.203125 33.28125 -35.265625 C 33.707031 -36.066406 34.128906 -36.847656 34.546875 -37.609375 C 36.046875 -40.191406 37.476562 -42.800781 38.84375 -45.4375 C 43.0625 -53.519531 47.300781 -61.625 51.5625 -69.75 C 55.425781 -77.195312 59.296875 -84.648438 63.171875 -92.109375 C 64.359375 -94.410156 65.570312 -96.679688 66.8125 -98.921875 C 67.632812 -100.398438 68.453125 -101.890625 69.265625 -103.390625 C 69.546875 -103.992188 69.925781 -104.484375 70.40625 -104.859375 C 70.882812 -105.242188 71.535156 -105.414062 72.359375 -105.375 C 73.023438 -105.28125 73.519531 -105.015625 73.84375 -104.578125 C 74.175781 -104.148438 74.253906 -103.65625 74.078125 -103.09375 C 73.835938 -102.570312 73.597656 -102.070312 73.359375 -101.59375 C 73.210938 -101.238281 73.0625 -100.921875 72.90625 -100.640625 C 67.363281 -88.546875 61.546875 -76.617188 55.453125 -64.859375 C 49.359375 -53.109375 43.140625 -41.453125 36.796875 -29.890625 C 36.691406 -29.691406 36.59375 -29.515625 36.5 -29.359375 C 36.300781 -28.929688 36.0625 -28.53125 35.78125 -28.15625 C 35.300781 -27.488281 35.070312 -26.773438 35.09375 -26.015625 C 35.125 -25.253906 35.300781 -24.4375 35.625 -23.5625 C 37.644531 -18.394531 39.8125 -13.289062 42.125 -8.25 C 44.4375 -3.207031 47.050781 1.722656 49.96875 6.546875 C 55.851562 16.347656 63.195312 24.976562 72 32.4375 C 76.144531 35.976562 80.707031 38.820312 85.6875 40.96875 C 88.882812 42.3125 92.003906 43.050781 95.046875 43.1875 C 98.085938 43.332031 101.039062 42.789062 103.90625 41.5625 C 103.988281 41.488281 104.085938 41.429688 104.203125 41.390625 C 104.921875 41.066406 105.671875 40.804688 106.453125 40.609375 C 107.234375 40.410156 108.078125 40.429688 108.984375 40.671875 Z M 108.984375 40.671875 "/></g></g></g><g fill="#ffffff" fill-opacity="1"><g transform="translate(35.525447, 204.041671)"><g><path d="M 69.015625 -6.546875 L 63.71875 0 L 40.171875 0 L 2.640625 -46.328125 L 26.203125 -46.328125 L 51.9375 -14.5625 L 57.234375 -21.109375 L 36.796875 -46.328125 L 60.34375 -46.328125 L 69.015625 -35.59375 L 77.6875 -46.328125 L 101.25 -46.328125 L 80.796875 -21.109375 L 86.09375 -14.5625 L 111.828125 -46.328125 L 135.390625 -46.328125 L 97.875 0 L 74.3125 0 Z M 69.015625 -6.546875 "/></g></g></g><g fill="#ffffff" fill-opacity="1"><g transform="translate(173.549222, 204.041671)"><g><path d="M 2.640625 0 L 2.640625 -46.328125 L 23.5625 -46.328125 L 23.5625 0 Z M 2.640625 0 "/></g></g></g><g fill="#ffffff" fill-opacity="1"><g transform="translate(199.751238, 204.041671)"><g><path d="M 2.640625 0 L 2.640625 -46.328125 L 23.5625 -46.328125 L 23.5625 -20.90625 L 60.34375 -46.328125 L 90.65625 -46.328125 L 57.109375 -23.15625 L 90.65625 0 L 60.34375 0 L 41.953125 -12.703125 L 23.5625 0 Z M 2.640625 0 "/></g></g></g><g fill="#ffffff" fill-opacity="1"><g transform="translate(293.046305, 204.041671)"><g><path d="M 2.640625 0 L 2.640625 -46.328125 L 23.5625 -46.328125 L 23.5625 0 Z M 2.640625 0 "/></g></g></g></svg>