<?xml version="1.0" encoding="UTF-8" standalone="no"?>
<svg
   height="24px"
   viewBox="0 -960 960 960"
   width="24px"
   fill="#F19E39"
   version="1.1"
   id="svg1"
   sodipodi:docname="newyear.svg"
   inkscape:version="1.4 (e7c3feb100, 2024-10-09)"
   xmlns:inkscape="http://www.inkscape.org/namespaces/inkscape"
   xmlns:sodipodi="http://sodipodi.sourceforge.net/DTD/sodipodi-0.dtd"
   xmlns:xlink="http://www.w3.org/1999/xlink"
   xmlns="http://www.w3.org/2000/svg"
   xmlns:svg="http://www.w3.org/2000/svg">
  <defs
     id="defs1">
    <linearGradient
       id="linearGradient8"
       inkscape:collect="always">
      <stop
         style="stop-color:#a96424;stop-opacity:1;"
         offset="0.34973377"
         id="stop8" />
      <stop
         style="stop-color:#2854c5;stop-opacity:1;"
         offset="0.73940086"
         id="stop9" />
    </linearGradient>
    <linearGradient
       inkscape:collect="always"
       xlink:href="#linearGradient8"
       id="linearGradient9"
       x1="109.74321"
       y1="-739.25653"
       x2="850.25665"
       y2="-220.74345"
       gradientUnits="userSpaceOnUse" />
  </defs>
  <sodipodi:namedview
     id="namedview1"
     pagecolor="#ffffff"
     bordercolor="#000000"
     borderopacity="0.25"
     inkscape:showpageshadow="2"
     inkscape:pageopacity="0.0"
     inkscape:pagecheckerboard="0"
     inkscape:deskcolor="#d1d1d1"
     inkscape:zoom="24.208333"
     inkscape:cx="12"
     inkscape:cy="12"
     inkscape:window-width="1536"
     inkscape:window-height="792"
     inkscape:window-x="0"
     inkscape:window-y="0"
     inkscape:window-maximized="1"
     inkscape:current-layer="svg1" />
  <path
     d="m480-281 59-59h81v-81l59-59-59-59v-81h-81l-59-59-59 59h-81v81l-59 59 59 59v81h81l59 59Zm0 253L346-160H160v-186L28-480l132-134v-186h186l134-132 134 132h186v186l132 134-132 134v186H614L480-28Zm0-112 100-100h140v-140l100-100-100-100v-140H580L480-820 380-720H240v140L140-480l100 100v140h140l100 100Zm0-340Z"
     id="path1"
     style="fill:url(#linearGradient9)" />
</svg>
