<?xml version="1.0" encoding="UTF-8" standalone="no"?>
<svg
   height="24px"
   viewBox="0 -960 960 960"
   width="24px"
   fill="#48752C"
   version="1.1"
   id="svg1"
   sodipodi:docname="history.svg"
   inkscape:version="1.4 (e7c3feb100, 2024-10-09)"
   xmlns:inkscape="http://www.inkscape.org/namespaces/inkscape"
   xmlns:sodipodi="http://sodipodi.sourceforge.net/DTD/sodipodi-0.dtd"
   xmlns="http://www.w3.org/2000/svg"
   xmlns:svg="http://www.w3.org/2000/svg">
  <defs
     id="defs1" />
  <sodipodi:namedview
     id="namedview1"
     pagecolor="#ffffff"
     bordercolor="#000000"
     borderopacity="0.25"
     inkscape:showpageshadow="2"
     inkscape:pageopacity="0.0"
     inkscape:pagecheckerboard="0"
     inkscape:deskcolor="#d1d1d1"
     inkscape:zoom="24.208333"
     inkscape:cx="12"
     inkscape:cy="12"
     inkscape:window-width="1536"
     inkscape:window-height="792"
     inkscape:window-x="0"
     inkscape:window-y="0"
     inkscape:window-maximized="1"
     inkscape:current-layer="svg1" />
  <path
     d="M480-120q-138 0-240.5-91.5T122-440h82q14 104 92.5 172T480-200q117 0 198.5-81.5T760-480q0-117-81.5-198.5T480-760q-69 0-129 32t-101 88h110v80H120v-240h80v94q51-64 124.5-99T480-840q75 0 140.5 28.5t114 77q48.5 48.5 77 114T840-480q0 75-28.5 140.5t-77 114q-48.5 48.5-114 77T480-120Zm112-192L440-464v-216h80v184l128 128-56 56Z"
     id="path1"
     style="fill:#000000" />
</svg>
