<?xml version="1.0" encoding="UTF-8"?>
<svg version="1.1" xmlns="http://www.w3.org/2000/svg" width="343" height="167">
<path d="M0 0 C113.19 0 226.38 0 343 0 C343 55.11 343 110.22 343 167 C229.81 167 116.62 167 0 167 C0 111.89 0 56.78 0 0 Z " fill="#181817" transform="translate(0,0)"/>
<path d="M0 0 C18.15 0 36.3 0 55 0 C55 23.1 55 46.2 55 70 C36.85 70 18.7 70 0 70 C0 46.9 0 23.8 0 0 Z " fill="#37F714" transform="translate(29,52)"/>
<path d="M0 0 C2.97 0 5.94 0 9 0 C10.67029959 4.81021495 12.02378652 9.66027192 13.3125 14.58203125 C13.52688721 15.39564621 13.74127441 16.20926117 13.9621582 17.04753113 C14.41355734 18.7626363 14.86397884 20.47799904 15.31347656 22.19360352 C15.995286 24.79451739 16.68100554 27.39437734 17.3671875 29.99414062 C17.80752723 31.66920893 18.24763876 33.34433724 18.6875 35.01953125 C18.88964111 35.78546097 19.09178223 36.55139069 19.30004883 37.3405304 C20.65768912 42.53503703 21.86905102 47.75158088 23 53 C23.20568604 52.27748047 23.41137207 51.55496094 23.62329102 50.81054688 C25.89176749 42.8460373 28.16686476 34.88343812 30.44885254 26.92279053 C30.98277425 25.06009556 31.51629614 23.197286 32.04980469 21.33447266 C33.00858708 17.9927107 33.97216377 14.65237382 34.9375 11.3125 C35.23148682 10.28640625 35.52547363 9.2603125 35.82836914 8.203125 C36.10028076 7.26597656 36.37219238 6.32882813 36.65234375 5.36328125 C36.88945068 4.54126221 37.12655762 3.71924316 37.37084961 2.87231445 C38 1 38 1 39 0 C40.51928038 -0.07179964 42.04167482 -0.08392007 43.5625 -0.0625 C44.38878906 -0.05347656 45.21507812 -0.04445312 46.06640625 -0.03515625 C46.70449219 -0.02355469 47.34257812 -0.01195312 48 0 C52.13678005 12.70362536 56.19368791 25.42428981 59.9375 38.25 C60.23148682 39.25417969 60.52547363 40.25835937 60.82836914 41.29296875 C62.04997203 45.51482832 63.18194358 49.67866382 64 54 C64.131147 53.45622208 64.26229401 52.91244415 64.39741516 52.35218811 C65.77191619 46.65642608 67.15187605 40.96200598 68.53491211 35.26831055 C69.0493145 33.14755143 69.56235715 31.02646199 70.07397461 28.9050293 C70.81260535 25.84334376 71.55623281 22.78290738 72.30078125 19.72265625 C72.52590897 18.78478775 72.75103668 17.84691925 72.98298645 16.88063049 C74.38585969 11.14002735 76.05943403 5.58255242 78 0 C80.97 0 83.94 0 87 0 C85.23145935 9.44561486 83.11483888 18.68474113 80.55908203 27.953125 C79.53254535 31.71141475 78.55057995 35.48145539 77.5625 39.25 C77.35544434 40.03584473 77.14838867 40.82168945 76.93505859 41.63134766 C75.81466067 45.88437472 74.70421019 50.13976161 73.60546875 54.3984375 C73.2650354 55.71086426 73.2650354 55.71086426 72.91772461 57.04980469 C72.47951645 58.73983016 72.04404016 60.43056683 71.61157227 62.12207031 C70.11248223 67.88751777 70.11248223 67.88751777 69 69 C67.48071962 69.07179964 65.95832518 69.08392007 64.4375 69.0625 C63.19806641 69.04896484 63.19806641 69.04896484 61.93359375 69.03515625 C60.97646484 69.01775391 60.97646484 69.01775391 60 69 C57.43617131 63.45006496 55.78350911 57.90922051 54.25 52 C52.03731941 43.68415678 49.68778095 35.42158586 47.1875 27.1875 C46.73455566 25.68413086 46.73455566 25.68413086 46.27246094 24.15039062 C45.99047852 23.22806641 45.70849609 22.30574219 45.41796875 21.35546875 C45.16813232 20.53715576 44.9182959 19.71884277 44.66088867 18.87573242 C44.15605014 17.01206989 44.15605014 17.01206989 43 16 C42.82460693 16.63687744 42.64921387 17.27375488 42.46850586 17.92993164 C38.89073177 30.89081524 35.22002415 43.8102592 31.22241211 56.64868164 C30.94534424 57.54321045 30.66827637 58.43773926 30.3828125 59.359375 C30.13934082 60.13764648 29.89586914 60.91591797 29.64501953 61.71777344 C28.96381786 64.12802069 28.46057312 66.53889735 28 69 C24.7 69 21.4 69 18 69 C14.06768695 56.3151192 10.82333757 43.48869258 7.640625 30.59765625 C6.37723501 25.48699799 5.06798958 20.39267475 3.6875 15.3125 C2.31109995 10.23222514 1.08429489 5.15040075 0 0 Z " fill="#37F214" transform="translate(160,52)"/>
<path d="M0 0 C3.63 0 7.26 0 11 0 C13.47336003 2.49688383 14.51625808 3.91486885 16 6.9375 C16.82448621 8.42187324 17.65138967 9.90490591 18.48046875 11.38671875 C18.89345215 12.15419434 19.30643555 12.92166992 19.73193359 13.71240234 C21.74764916 17.34876254 24.02806022 20.77540346 26.3125 24.25 C32.54166667 33.83333333 38.77083333 43.41666667 45 53 C45.33 35.51 45.66 18.02 46 0 C48.64 0 51.28 0 54 0 C54 22.44 54 44.88 54 68 C50.37 68 46.74 68 43 68 C40.46323093 65.31223277 39.31061905 63.64473002 37.75 60.4375 C36.84611081 58.78243502 35.93697861 57.13022583 35.0234375 55.48046875 C34.54487305 54.59407715 34.06630859 53.70768555 33.57324219 52.79443359 C30.75485488 47.78834093 27.54798802 43.03609573 24.375 38.25 C18.86291064 29.86659696 13.42608657 21.4405791 8 13 C8 31.48 8 49.96 8 69 C5.36 69 2.72 69 0 69 C0 46.23 0 23.46 0 0 Z " fill="#38F814" transform="translate(258,53)"/>
<path d="M0 0 C9.57 0 19.14 0 29 0 C29 17.82 29 35.64 29 54 C19.43 54 9.86 54 0 54 C0 36.18 0 18.36 0 0 Z " fill="#181A17" transform="translate(46,60)"/>
<path d="M0 0 C1.32 0.33 2.64 0.66 4 1 C4 1.66 4 2.32 4 3 C4.59425781 3.14695313 5.18851562 3.29390625 5.80078125 3.4453125 C12.80842293 5.34162611 18.75530835 8.33154046 25 12 C25 12.66 25 13.32 25 14 C25.57105469 14.13535156 26.14210938 14.27070312 26.73046875 14.41015625 C34.48013394 16.46769852 41.08223256 20.04234308 48 24 C48 24.66 48 25.32 48 26 C50.97 26.99 53.94 27.98 57 29 C57 31.31 57 33.62 57 36 C54.35261084 37.4606285 53.10551666 38 50 38 C50 38.66 50 39.32 50 40 C48.39850114 40.67305018 46.79368971 41.33822227 45.1875 42 C44.29417969 42.37125 43.40085938 42.7425 42.48046875 43.125 C40 44 40 44 37 44 C37 44.66 37 45.32 37 46 C36.33613281 46.25394531 35.67226562 46.50789063 34.98828125 46.76953125 C29.54465032 48.85457525 29.54465032 48.85457525 24.4375 51.625 C20.84509236 53.65148636 17.02780693 54.25410983 13 55 C13 55.66 13 56.32 13 57 C11.3962669 57.64690922 9.79199694 58.29248764 8.1875 58.9375 C6.84751953 59.47697266 6.84751953 59.47697266 5.48046875 60.02734375 C3.6729091 60.73613486 1.84192591 61.3860247 0 62 C0 58.37 0 54.74 0 51 C5 49 5 49 9 49 C9 48.34 9 47.68 9 47 C12.37097383 45.50178941 14.20442119 45 18 45 C18 44.34 18 43.68 18 43 C19.91282125 42.15787744 21.83042473 41.32661136 23.75 40.5 C24.81734375 40.0359375 25.8846875 39.571875 26.984375 39.09375 C30 38 30 38 34 38 C34 37.34 34 36.68 34 36 C34.95712891 35.70996094 34.95712891 35.70996094 35.93359375 35.4140625 C36.75988281 35.15367188 37.58617187 34.89328125 38.4375 34.625 C39.26121094 34.36976562 40.08492187 34.11453125 40.93359375 33.8515625 C43.17798016 33.19117773 43.17798016 33.19117773 44 31 C42.75887451 30.62500366 42.75887451 30.62500366 41.49267578 30.24243164 C37.51346661 28.82692797 33.87080353 27.04238779 30.1171875 25.12109375 C29.01215378 24.56289696 29.01215378 24.56289696 27.88479614 23.99342346 C25.5462144 22.81198363 23.21030731 21.6253978 20.875 20.4375 C17.79137538 18.86907741 14.70513652 17.30598181 11.6171875 15.74609375 C10.91294647 15.3856749 10.20870544 15.02525604 9.48312378 14.65391541 C6.29155145 13.04218086 3.4910388 11.8727597 0 11 C0 7.37 0 3.74 0 0 Z " fill="#36F014" transform="translate(96,50)"/>
</svg>
