<?xml version="1.0" encoding="UTF-8" standalone="no"?>
<svg
   width="1920"
   zoomAndPan="magnify"
   viewBox="0 0 1440 809.99998"
   height="1080"
   preserveAspectRatio="xMidYMid"
   version="1.0"
   id="svg25"
   sodipodi:docname="WelcomeBanner.svg"
   xml:space="preserve"
   inkscape:version="1.4 (e7c3feb100, 2024-10-09)"
   xmlns:inkscape="http://www.inkscape.org/namespaces/inkscape"
   xmlns:sodipodi="http://sodipodi.sourceforge.net/DTD/sodipodi-0.dtd"
   xmlns="http://www.w3.org/2000/svg"
   xmlns:svg="http://www.w3.org/2000/svg"><sodipodi:namedview
     id="namedview25"
     pagecolor="#181818"
     bordercolor="#000000"
     borderopacity="0.25"
     inkscape:showpageshadow="2"
     inkscape:pageopacity="0.0"
     inkscape:pagecheckerboard="0"
     inkscape:deskcolor="#d1d1d1"
     inkscape:zoom="0.45440453"
     inkscape:cx="1256.5896"
     inkscape:cy="430.23339"
     inkscape:window-width="1920"
     inkscape:window-height="1011"
     inkscape:window-x="0"
     inkscape:window-y="32"
     inkscape:window-maximized="1"
     inkscape:current-layer="svg25" /><defs
     id="defs1"><g
       id="g1" /></defs><g
     fill="#ff5541"
     fill-opacity="1"
     id="g4"
     style="stroke-width:0.99975;stroke-dasharray:none"
     transform="matrix(1.3575235,0,0,1.5982681,-43.354477,-131.86829)"><g
       transform="translate(56.960494,212.69388)"
       id="g3"
       style="stroke-width:0.99975;stroke-dasharray:none"><g
         id="g2"
         style="stroke-width:0.99975;stroke-dasharray:none"><path
           d="m 54.5,-19.265625 c 0.519531,-0.08203 1.054688,-0.113281 1.609375,-0.09375 0.550781,0.02344 1.085937,0.171875 1.609375,0.453125 0.09375,0.08594 0.175781,0.234375 0.25,0.453125 0.07031,0.21875 0.128906,0.429687 0.171875,0.625 0,0.08594 -0.04687,0.1875 -0.140625,0.3125 -0.09375,0.117187 -0.1875,0.230469 -0.28125,0.34375 -0.242188,0.125 -0.480469,0.21875 -0.71875,0.28125 -3.105469,0.617187 -5.984375,1.652344 -8.640625,3.109375 -2.648437,1.449219 -5.164063,3.132812 -7.546875,5.046875 -3.261719,2.542969 -6.265625,5.328125 -9.015625,8.359375 -2.75,3.03125 -5.34375,6.195312 -7.78125,9.5 -4.625,6.21875 -8.929687,12.671875 -12.90625,19.359375 -0.90625,1.539063 -1.839844,3.050781 -2.796875,4.53125 -0.136719,0.28125 -0.296875,0.539063 -0.484375,0.78125 -0.4375,0.71875 -0.917969,1.390625 -1.4375,2.015625 C 4.992188,37.289062 3.363281,37.648438 1.5,36.890625 0.738281,36.503906 0.296875,35.988281 0.171875,35.34375 0.0546875,34.707031 0.078125,34.03125 0.234375,33.3125 1.273438,23.882812 1.894531,14.460938 2.09375,5.046875 2.457031,-7.578125 2.695312,-20.195312 2.8125,-32.8125 c 0.125,-12.625 -0.074219,-25.238281 -0.59375,-37.84375 -0.324219,-7.5625 -0.75,-15.144531 -1.28125,-22.75 -0.230469,-3.476562 -0.464844,-6.96875 -0.703125,-10.46875 0,-0.28125 -0.039063,-0.53906 -0.109375,-0.78125 -0.0429688,-0.71875 -0.0625,-1.4375 -0.0625,-2.15625 0.113281,-1.10156 0.734375,-1.72266 1.859375,-1.85938 0.675781,-0.10156 1.28125,-0.0352 1.8125,0.20313 0.53125,0.24219 0.835937,0.60156 0.921875,1.07812 0.4375,1.78125 0.753906,3.57422 0.953125,5.375 0,0.52344 0.019531,1.05469 0.0625,1.59375 0.71875,9.843755 1.335937,19.687505 1.859375,29.531255 0.519531,9.761719 0.769531,19.53125 0.75,29.3125 -0.023438,9.773437 -0.152344,19.558594 -0.390625,29.359375 -0.15625,8.011719 -0.375,16.035156 -0.65625,24.078125 C 7.191406,13.734375 7.09375,15.59375 6.9375,17.4375 6.851562,18.5 6.789062,19.550781 6.75,20.59375 c -0.042969,0.914062 -0.101562,1.851562 -0.171875,2.8125 0,0.425781 -0.023437,0.859375 -0.0625,1.296875 0.15625,0.03906 0.273437,0.08203 0.359375,0.125 0.15625,0 0.296875,0.02344 0.421875,0.07813 0.238281,-0.375 0.476563,-0.734375 0.71875,-1.078125 0.632813,-1 1.285156,-2 1.953125,-3 4.4375,-7.085937 9.335938,-13.796875 14.703125,-20.140625 2.71875,-3.21875 5.617187,-6.203125 8.703125,-8.953125 3.082031,-2.75 6.460938,-5.175781 10.140625,-7.28125 1.738281,-0.957031 3.503906,-1.765625 5.296875,-2.421875 1.789062,-0.664062 3.6875,-1.097656 5.6875,-1.296875 z m 0,0"
           id="path1"
           style="stroke-width:0.99975;stroke-dasharray:none" /></g></g></g><g
     fill="#ff5541"
     fill-opacity="1"
     id="g7"
     style="stroke-width:0.99975;stroke-dasharray:none"
     transform="matrix(1.3575235,0,0,1.5982681,-43.354477,-131.86829)"><g
       transform="translate(109.71966,212.69388)"
       id="g6"
       style="stroke-width:0.99975;stroke-dasharray:none"><g
         id="g5"
         style="stroke-width:0.99975;stroke-dasharray:none"><path
           d="M 76.71875,-7.171875 C 75.675781,-3.804688 74.519531,-0.5625 73.25,2.5625 c -1.273438,3.132812 -2.742188,6.160156 -4.40625,9.078125 -5.355469,8.945313 -10.75,15.769531 -16.1875,20.46875 -5.429688,4.707031 -10.554688,7.695313 -15.375,8.96875 -4.824219,1.269531 -9.039062,1.222656 -12.640625,-0.140625 -3.605469,-1.367188 -6.292969,-3.636719 -8.0625,-6.8125 -1.773437,-3.179688 -2.277344,-6.84375 -1.515625,-11 0.757812,-4.15625 3.078125,-8.402344 6.953125,-12.734375 3.875,-4.324219 9.617187,-8.324219 17.234375,-12 7.625,-3.6875 17.460938,-6.628906 29.515625,-8.828125 1.15625,-0.34375 2.003906,-0.882812 2.546875,-1.625 0.539062,-0.738281 0.953125,-1.660156 1.234375,-2.765625 2.59375,-10.082031 4.625,-20.359375 6.09375,-30.828125 1.113281,-8.5 1.910156,-17.101562 2.390625,-25.8125 0.03906,-0.8125 0.0078,-1.285156 -0.09375,-1.421875 -0.09375,-0.144531 -0.226562,-0.07813 -0.390625,0.203125 -0.15625,0.28125 -0.320313,0.664062 -0.484375,1.140625 -0.167969,0.480469 -0.324219,0.9375 -0.46875,1.375 -1.15625,3.867187 -2.773438,8.132813 -4.84375,12.796875 -2.074219,4.65625 -4.476562,9.28125 -7.203125,13.875 -2.730469,4.59375 -5.71875,8.730469 -8.96875,12.40625 -3.242187,3.679688 -6.609375,6.5 -10.109375,8.46875 -4.78125,2.523438 -9.40625,3.695312 -13.875,3.515625 -4.460938,-0.1875 -8.617188,-1.472656 -12.46875,-3.859375 -3.84375,-2.394531 -7.203125,-5.601562 -10.078125,-9.625 C 9.179688,-36.613281 6.976562,-41.175781 5.4375,-46.28125 2.726562,-55.363281 1.078125,-64.5 0.484375,-73.6875 0.160156,-77.75 0.0195312,-81.785156 0.0625,-85.796875 0.101562,-89.804688 0.394531,-93.78125 0.9375,-97.71875 1.414062,-101.5 2.273438,-105.10156 3.515625,-108.53125 3.753906,-109.25 4.125,-109.82031 4.625,-110.25 c 0.5,-0.4375 1.207031,-0.65625 2.125,-0.65625 0.800781,0.0625 1.40625,0.30859 1.8125,0.73437 0.414062,0.41797 0.523438,0.98438 0.328125,1.70313 -1.34375,4.58594 -2.257813,9.296875 -2.734375,14.140625 -0.90625,9.5625 -0.589844,19.289063 0.953125,29.171875 0.425781,3.023438 0.9375,6.058594 1.53125,9.109375 0.601563,3.054687 1.382813,6.089844 2.34375,9.109375 1.082031,3.4375 2.546875,6.796875 4.390625,10.078125 1.851562,3.28125 4.054688,6.152344 6.609375,8.609375 2.550781,2.449219 5.425781,4.132812 8.625,5.046875 3.207031,0.90625 6.75,0.6875 10.625,-0.65625 3.726563,-1.476563 7.238281,-3.910156 10.53125,-7.296875 3.300781,-3.394531 6.332031,-7.398438 9.09375,-12.015625 2.769531,-4.613281 5.226563,-9.453125 7.375,-14.515625 2.15625,-5.0625 3.976563,-9.960938 5.46875,-14.703125 1.488281,-4.738281 2.613281,-8.921875 3.375,-12.546875 0.71875,-3.5 1.4375,-6.960938 2.15625,-10.390625 0.5625,-2.5 1.113281,-5.007815 1.65625,-7.531255 0.132813,-0.75781 0.414063,-1.3789 0.84375,-1.85937 0.4375,-0.47656 1.082031,-0.75 1.9375,-0.8125 1.5,-0.0391 2.53125,0.23437 3.09375,0.82812 0.5625,0.59375 0.875,1.44922 0.9375,2.5625 0.375,4.304692 0.492187,8.54688 0.359375,12.73438 -0.304688,8.28125 -0.757812,16.539062 -1.359375,24.765625 -0.59375,8.21875 -1.484375,16.371094 -2.671875,24.453125 -1.199219,7.5 -2.65625,14.933594 -4.375,22.296875 -0.917969,3.78125 -1.898438,7.355469 -2.9375,10.71875 z m -7.453125,2.90625 c 0.144531,-0.394531 0.21875,-0.773437 0.21875,-1.140625 0,-0.300781 -0.08984,-0.507812 -0.265625,-0.625 -0.167969,-0.125 -0.371094,-0.15625 -0.609375,-0.09375 -0.480469,0 -1.121094,0.085938 -1.921875,0.25 -0.804688,0.15625 -1.59375,0.3125 -2.375,0.46875 -0.53125,0.085938 -0.980469,0.167969 -1.34375,0.25 -6.367188,1.3125 -12.515625,3.460938 -18.453125,6.4375 -5.929687,2.988281 -11.054687,6.414062 -15.375,10.28125 -4.324219,3.875 -7.226563,7.742188 -8.703125,11.609375 -1.242188,3.582031 -1.25,6.347656 -0.03125,8.296875 1.21875,1.945312 3.296875,3.0625 6.234375,3.34375 2.945313,0.28125 6.363281,-0.296875 10.25,-1.734375 3.894531,-1.429687 7.898437,-3.757813 12.015625,-6.984375 4.113281,-3.230469 7.960938,-7.367188 11.546875,-12.40625 3.59375,-5.042969 6.53125,-11.027344 8.8125,-17.953125 z m 0,0"
           id="path4"
           style="stroke-width:0.99975;stroke-dasharray:none" /></g></g></g><g
     fill="#ff5541"
     fill-opacity="1"
     id="g10"
     style="stroke-width:0.99975;stroke-dasharray:none"
     transform="matrix(1.3575235,0,0,1.5982681,-43.354477,-131.86829)"><g
       transform="translate(200.24774,212.69388)"
       id="g9"
       style="stroke-width:0.99975;stroke-dasharray:none"><g
         id="g8"
         style="stroke-width:0.99975;stroke-dasharray:none"><path
           d="m 66.390625,-102.85938 c 0.582031,2.82422 0.898437,5.714849 0.953125,8.67188 0.125,5.25 0.06641,10.507812 -0.171875,15.765625 -0.242187,5.261719 -0.601563,10.523437 -1.078125,15.78125 -0.367188,4.542969 -0.726562,9.085937 -1.078125,13.625 -0.28125,3.742187 -0.5625,7.484375 -0.84375,11.234375 -0.324219,4.261719 -0.683594,8.542969 -1.078125,12.84375 -0.386719,4.261719 -0.765625,8.542969 -1.140625,12.84375 -0.386719,4.980469 -0.742187,9.953125 -1.0625,14.921875 C 60.734375,6.179688 60.554688,9.5 60.359375,12.78125 60.179688,16.507812 60,20.265625 59.8125,24.046875 59.21875,33.328125 59,42.597656 59.15625,51.859375 c 0,0.582031 -0.04297,1.132813 -0.125,1.65625 -0.15625,0.5625 -0.546875,0.898437 -1.171875,1.015625 C 55.941406,54.894531 54.863281,54.175781 54.625,52.375 54.5,50.988281 54.4375,49.597656 54.4375,48.203125 c 0,-2.625 0,-5.257813 0,-7.890625 -0.117188,-7.0625 -0.140625,-14.15625 -0.07813,-21.28125 0.132813,-6.648438 0.460937,-13.292969 0.984375,-19.9375 0.582031,-8.082031 1.210938,-16.15625 1.890625,-24.21875 0.414063,-4.9375 0.816406,-9.835938 1.203125,-14.703125 0.957031,-12.1875 1.890625,-24.351563 2.796875,-36.5 0.476563,-6.800781 0.578125,-13.613281 0.296875,-20.4375 -0.148438,-4.062505 -0.820312,-6.160155 -2.015625,-6.296875 -1.199219,-0.14453 -2.765625,1.1875 -4.703125,4 -1.929688,2.8125 -4.089844,6.671875 -6.484375,11.578125 -2.386719,4.898437 -4.859375,10.371094 -7.421875,16.421875 -2.5625,6.054688 -5.074219,12.1875 -7.53125,18.40625 -2.460938,6.210938 -4.730469,12.074219 -6.8125,17.59375 -2.085938,5.511719 -3.820312,10.195312 -5.203125,14.046875 -1.375,3.84375 -2.304687,6.417969 -2.78125,7.71875 -0.15625,0.367187 -0.234375,0.574219 -0.234375,0.625 C 15.875,-6.066406 13.320312,0.503906 10.6875,7.046875 9.925781,8.828125 9.066406,10.570312 8.109375,12.28125 7.921875,12.613281 7.707031,12.972656 7.46875,13.359375 7.03125,14.316406 6.332031,14.957031 5.375,15.28125 3.988281,15.675781 2.785156,15.671875 1.765625,15.265625 0.742188,14.867188 0.195312,13.800781 0.125,12.0625 0.0390625,8.300781 0.078125,4.550781 0.234375,0.8125 c 0.082031,-1.90625 0.144531,-3.835938 0.1875,-5.796875 0.394531,-10.382813 0.832031,-20.78125 1.3125,-31.1875 C 2.097656,-43.148438 2.5,-50.101562 2.9375,-57.03125 c 0.34375,-5.375 0.675781,-10.734375 1,-16.078125 0.09375,-2.144531 0.238281,-4.273437 0.4375,-6.390625 0.382812,-4.488281 0.578125,-9.003906 0.578125,-13.546875 0,-0.570313 0.019531,-1.148437 0.0625,-1.734375 C 5.171875,-96.257812 5.988281,-97 7.46875,-97 c 1.476562,0 2.289062,0.773438 2.4375,2.3125 0.175781,2.09375 0.226562,4.21875 0.15625,6.375 -0.0625,2.148438 -0.167969,4.292969 -0.3125,6.4375 0,0.15625 0,0.308594 0,0.453125 -0.199219,2.5625 -0.386719,5.164063 -0.5625,7.796875 -0.242188,2.78125 -0.453125,5.585938 -0.640625,8.40625 -0.71875,13.148438 -1.417969,26.292969 -2.09375,39.4375 C 5.972656,-16.9375 5.539062,-8.09375 5.15625,0.75 5.0625,3.507812 5.320312,4.851562 5.9375,4.78125 c 0.625,-0.0625 1.441406,-1.042969 2.453125,-2.9375 1.007813,-1.8828125 2.070313,-4.1875 3.1875,-6.90625 1.125,-2.726562 2.164063,-5.335938 3.125,-7.828125 0.957031,-2.488281 1.648437,-4.351563 2.078125,-5.59375 0.132812,-0.363281 0.234375,-0.625 0.296875,-0.78125 1.519531,-4.144531 3.28125,-9.207031 5.28125,-15.1875 2.0625,-6.082031 4.328125,-12.550781 6.796875,-19.40625 2.46875,-6.851563 5.085938,-13.601563 7.859375,-20.25 2.769531,-6.65625 5.617187,-12.644531 8.546875,-17.96875 2.9375,-5.320313 5.9375,-9.492185 9,-12.515625 0.90625,-0.90625 1.882812,-1.66406 2.9375,-2.28125 2.0625,-1.10156 3.9375,-1.28516 5.625,-0.54688 1.695312,0.74219 2.785156,2.26172 3.265625,4.5625 z m 0,0"
           id="path7"
           style="stroke-width:0.99975;stroke-dasharray:none" /></g></g></g><g
     fill="#ff5541"
     fill-opacity="1"
     id="g13"
     style="stroke-width:0.99975;stroke-dasharray:none"
     transform="matrix(1.3575235,0,0,1.5982681,-43.354477,-131.86829)"><g
       transform="translate(269.6917,212.69388)"
       id="g12"
       style="stroke-width:0.99975;stroke-dasharray:none"><g
         id="g11"
         style="stroke-width:0.99975;stroke-dasharray:none"><path
           d="m 108.98438,40.671875 c 0.19531,0.113281 0.39062,0.238281 0.57812,0.375 0.1875,0.144531 0.33203,0.28125 0.4375,0.40625 0.13281,0.3125 0.12891,0.566406 -0.0156,0.765625 -0.14844,0.207031 -0.33985,0.367188 -0.57813,0.484375 -3.34375,1.664063 -6.82812,2.726563 -10.453125,3.1875 -3.625,0.457031 -7.449219,0.207031 -11.46875,-0.75 -3.15625,-0.78125 -6.167969,-1.933594 -9.03125,-3.453125 -2.867187,-1.523438 -5.617187,-3.292969 -8.25,-5.3125 C 64.835938,32.269531 60.019531,27.742188 55.75,22.796875 51.476562,17.859375 47.640625,12.539062 44.234375,6.84375 c -2.242187,-3.699219 -4.28125,-7.457031 -6.125,-11.28125 -1.835937,-3.820312 -3.5625,-7.6875 -5.1875,-11.59375 -0.355469,-0.800781 -0.714844,-1.597656 -1.078125,-2.390625 -0.105469,-0.125 -0.246094,-0.265625 -0.421875,-0.421875 -0.117187,-0.03906 -0.195313,-0.101562 -0.234375,-0.1875 -0.804688,0.605469 -1.375,1.367188 -1.71875,2.28125 -0.136719,0.28125 -0.277344,0.5625 -0.421875,0.84375 -2.15625,3.886719 -4.308594,7.765625 -6.453125,11.640625 -3.261719,5.820313 -6.511719,11.625 -9.75,17.40625 -1.4375,2.582031 -2.929688,5.125 -4.46875,7.625 -0.886719,1.425781 -1.765625,2.878906 -2.640625,4.359375 -0.324219,0.613281 -0.75,1.125 -1.28125,1.53125 -0.53125,0.414062 -1.226563,0.625 -2.078125,0.625 C 1.550781,27.238281 0.945312,26.976562 0.5625,26.5 0.1875,26.019531 0.117188,25.421875 0.359375,24.703125 0.984375,23.265625 1.675781,21.875 2.4375,20.53125 4.25,17.226562 6.066406,13.925781 7.890625,10.625 c 6.019531,-10.925781 12.113281,-21.820312 18.28125,-32.6875 0.957031,-1.5625 1.503906,-3.15625 1.640625,-4.78125 0.144531,-1.632812 -0.164062,-3.453125 -0.921875,-5.453125 -2.0625,-5.363281 -3.90625,-10.753906 -5.53125,-16.171875 -1.617187,-5.425781 -3.121094,-10.867188 -4.515625,-16.328125 -2.34375,-9.40625 -4.234375,-18.820313 -5.671875,-28.25 0,-0.09375 -0.02344,-0.160156 -0.0625,-0.203125 0,-0.238281 -0.02344,-0.457031 -0.0625,-0.65625 -0.242187,-1.707031 0.28125,-2.5625 1.5625,-2.5625 1.78125,-0.238281 2.910156,0.617188 3.390625,2.5625 0.757812,3.074219 1.445312,6.132812 2.0625,9.171875 0.238281,1.148437 0.453125,2.296875 0.640625,3.453125 0.957031,4.929688 2.054687,9.871094 3.296875,14.828125 2.78125,10.34375 5.890625,20.621094 9.328125,30.828125 0.101563,0.199219 0.210937,0.40625 0.328125,0.625 0.125,0.21875 0.25,0.351562 0.375,0.390625 0.351562,0.148437 0.609375,0.152344 0.765625,0.01563 0.164063,-0.144531 0.304687,-0.335938 0.421875,-0.578125 0,0 0.01953,-0.03125 0.0625,-0.09375 0.425781,-0.800781 0.847656,-1.582031 1.265625,-2.34375 1.5,-2.582031 2.929687,-5.191406 4.296875,-7.828125 4.21875,-8.082031 8.457031,-16.1875 12.71875,-24.3125 3.863281,-7.445312 7.734375,-14.898438 11.609375,-22.359375 1.1875,-2.300781 2.398437,-4.570313 3.640625,-6.8125 0.820312,-1.47656 1.640625,-2.96876 2.453125,-4.46876 0.28125,-0.60156 0.660156,-1.09375 1.140625,-1.46875 0.476562,-0.38281 1.128906,-0.55468 1.953125,-0.51562 0.664063,0.0937 1.160156,0.35937 1.484375,0.79687 0.332031,0.42969 0.410156,0.92188 0.234375,1.48438 -0.242187,0.52344 -0.480469,1.02344 -0.71875,1.5 -0.148437,0.35547 -0.296875,0.67187 -0.453125,0.95312 -5.542969,12.09376 -11.359375,24.023447 -17.453125,35.78126 -6.09375,11.75 -12.3125,23.40625 -18.65625,34.96875 -0.105469,0.199219 -0.203125,0.375 -0.296875,0.53125 -0.199219,0.429687 -0.4375,0.828125 -0.71875,1.203125 -0.480469,0.667969 -0.710938,1.382812 -0.6875,2.140625 0.03125,0.761719 0.207031,1.578125 0.53125,2.453125 2.019531,5.167969 4.1875,10.273438 6.5,15.3125 2.3125,5.042969 4.925781,9.972656 7.84375,14.796875 C 55.851562,16.347656 63.195312,24.976562 72,32.4375 c 4.144531,3.539062 8.707031,6.382812 13.6875,8.53125 3.195312,1.34375 6.316406,2.082031 9.359375,2.21875 3.039063,0.144531 5.992185,-0.398438 8.859375,-1.625 0.082,-0.07422 0.17969,-0.132812 0.29688,-0.171875 0.71875,-0.324219 1.46875,-0.585937 2.25,-0.78125 0.78125,-0.199219 1.625,-0.179687 2.53125,0.0625 z m 0,0"
           id="path10"
           style="stroke-width:0.99975;stroke-dasharray:none" /></g></g></g><g
     fill="#ffffff"
     fill-opacity="1"
     id="g16"
     style="stroke-width:0.99975;stroke-dasharray:none"
     transform="matrix(1.3575235,0,0,1.5982681,-43.354477,-131.86829)"><g
       transform="translate(35.525447,204.04167)"
       id="g15"
       style="stroke-width:0.99975;stroke-dasharray:none"><g
         id="g14"
         style="stroke-width:0.99975;stroke-dasharray:none"><path
           d="M 69.015625,-6.546875 63.71875,0 H 40.171875 L 2.640625,-46.328125 h 23.5625 L 51.9375,-14.5625 l 5.296875,-6.546875 -20.4375,-25.21875 H 60.34375 L 69.015625,-35.59375 77.6875,-46.328125 H 101.25 l -20.453125,25.21875 5.296875,6.546875 25.73438,-31.765625 h 23.56249 L 97.875,0 H 74.3125 Z m 0,0"
           id="path13"
           style="stroke-width:0.99975;stroke-dasharray:none" /></g></g></g><g
     fill="#ffffff"
     fill-opacity="1"
     id="g19"
     style="stroke-width:0.99975;stroke-dasharray:none"
     transform="matrix(1.3575235,0,0,1.5982681,-43.354477,-131.86829)"><g
       transform="translate(173.54922,204.04167)"
       id="g18"
       style="stroke-width:0.99975;stroke-dasharray:none"><g
         id="g17"
         style="stroke-width:0.99975;stroke-dasharray:none"><path
           d="M 2.640625,0 V -46.328125 H 23.5625 V 0 Z m 0,0"
           id="path16"
           style="stroke-width:0.99975;stroke-dasharray:none" /></g></g></g><g
     fill="#ffffff"
     fill-opacity="1"
     id="g22"
     style="stroke-width:0.99975;stroke-dasharray:none"
     transform="matrix(1.3575235,0,0,1.5982681,-43.354477,-131.86829)"><g
       transform="translate(199.75124,204.04167)"
       id="g21"
       style="stroke-width:0.99975;stroke-dasharray:none"><g
         id="g20"
         style="stroke-width:0.99975;stroke-dasharray:none"><path
           d="M 2.640625,0 V -46.328125 H 23.5625 v 25.421875 l 36.78125,-25.421875 h 30.3125 L 57.109375,-23.15625 90.65625,0 H 60.34375 L 41.953125,-12.703125 23.5625,0 Z m 0,0"
           id="path19"
           style="stroke-width:0.99975;stroke-dasharray:none" /></g></g></g><g
     fill="#ffffff"
     fill-opacity="1"
     id="g25"
     style="stroke-width:0.99975;stroke-dasharray:none"
     transform="matrix(1.3575235,0,0,1.5982681,-43.354477,-131.86829)"><g
       transform="translate(293.04631,204.04167)"
       id="g24"
       style="stroke-width:0.99975;stroke-dasharray:none"><g
         id="g23"
         style="stroke-width:0.99975;stroke-dasharray:none"><path
           d="M 2.640625,0 V -46.328125 H 23.5625 V 0 Z m 0,0"
           id="path22"
           style="stroke-width:0.99975;stroke-dasharray:none" /></g></g></g><text
     xml:space="preserve"
     style="font-size:47.99999941px;text-align:start;writing-mode:lr-tb;direction:ltr;text-anchor:start;fill:#170200;fill-opacity:1;stroke-width:0.99975;stroke-dasharray:none;-inkscape-font-specification:'Courier Prime';font-family:'Courier Prime';font-weight:normal;font-style:normal;font-stretch:normal;font-variant:normal"
     x="28.058699"
     y="684.96234"
     id="text25"><tspan
       sodipodi:role="line"
       id="tspan25"
       style="stroke-width:0.99975;font-size:47.99999941px;-inkscape-font-specification:'Courier Prime';font-family:'Courier Prime';font-weight:normal;font-style:normal;font-stretch:normal;font-variant:normal"
       x="28.058699"
       y="684.96234" /></text><text
     xml:space="preserve"
     style="font-style:normal;font-variant:normal;font-weight:normal;font-stretch:normal;font-size:28px;font-family:'Courier Prime';-inkscape-font-specification:'Courier Prime';text-align:start;writing-mode:lr-tb;direction:ltr;text-anchor:start;fill:#fff3f2;fill-opacity:1;stroke-width:0.99975;stroke-dasharray:none"
     x="28.058699"
     y="764.18689"
     id="text26"><tspan
       sodipodi:role="line"
       id="tspan26"
       style="font-style:normal;font-variant:normal;font-weight:normal;font-stretch:normal;font-size:28px;font-family:Comfortaa;-inkscape-font-specification:Comfortaa;fill:#fff3f2;fill-opacity:1;stroke-width:0.99975"
       x="28.058699"
       y="764.18689">A simple app to play Wikipedia speedruns the right way</tspan></text><text
     xml:space="preserve"
     style="font-style:normal;font-variant:normal;font-weight:normal;font-stretch:normal;font-size:28px;font-family:'Courier Prime';-inkscape-font-specification:'Courier Prime';text-align:start;writing-mode:lr-tb;direction:ltr;text-anchor:start;fill:#fff3f2;fill-opacity:1;stroke-width:0.99975;stroke-dasharray:none"
     x="1204.8735"
     y="44.563816"
     id="text27"><tspan
       sodipodi:role="line"
       id="tspan27"
       style="stroke-width:0.99975"
       x="1204.8735"
       y="44.563816">Version 1.5.0</tspan></text><g
     id="g27"
     transform="matrix(0.94247949,0,0,0.95754937,1105.2145,631.24013)"><path
       d="m 0,0 c 113.19,0 226.38,0 343,0 0,55.11 0,110.22 0,167 -113.19,0 -226.38,0 -343,0 C 0,111.89 0,56.78 0,0 Z"
       fill="#181817"
       id="path1-4" /><path
       d="m 0,0 c 18.15,0 36.3,0 55,0 0,23.1 0,46.2 0,70 C 36.85,70 18.7,70 0,70 0,46.9 0,23.8 0,0 Z"
       fill="#37f714"
       transform="translate(29,52)"
       id="path2" /><path
       d="m 0,0 c 2.97,0 5.94,0 9,0 1.6703,4.8102149 3.023787,9.6602719 4.3125,14.582031 0.214387,0.813615 0.428774,1.62723 0.649658,2.4655 0.451399,1.715105 0.901821,3.430468 1.351319,5.146073 0.681809,2.600913 1.367529,5.200773 2.05371,7.800537 0.44034,1.675068 0.880452,3.350196 1.320313,5.02539 0.202141,0.76593 0.404282,1.53186 0.612549,2.320999 C 20.657689,42.535037 21.869051,47.751581 23,53 c 0.205686,-0.72252 0.411372,-1.445039 0.623291,-2.189453 2.268476,-7.96451 4.543574,-15.927109 6.825562,-23.887756 0.533921,-1.862695 1.067443,-3.725505 1.600952,-5.588318 C 33.008587,17.992711 33.972164,14.652374 34.9375,11.3125 35.231487,10.286406 35.525474,9.2603125 35.828369,8.203125 36.100281,7.2659766 36.372192,6.3288281 36.652344,5.3632812 36.889451,4.5412622 37.126558,3.7192432 37.37085,2.8723145 38,1 38,1 39,0 c 1.51928,-0.07179964 3.041675,-0.08392007 4.5625,-0.0625 0.826289,0.0090234 1.652578,0.01804688 2.503906,0.02734375 C 46.704492,-0.02355469 47.342578,-0.01195312 48,0 c 4.13678,12.703625 8.193688,25.42429 11.9375,38.25 0.293987,1.00418 0.587974,2.008359 0.890869,3.042969 C 62.049972,45.514828 63.181944,49.678664 64,54 c 0.131147,-0.543778 0.262294,-1.087556 0.397415,-1.647812 1.374501,-5.695762 2.754461,-11.390182 4.137497,-17.083877 0.514402,-2.12076 1.027445,-4.241849 1.539063,-6.363282 0.73863,-3.061685 1.482258,-6.122122 2.226806,-9.182373 0.225128,-0.937868 0.450256,-1.875737 0.682205,-2.842026 C 74.38586,11.140027 76.059434,5.5825524 78,0 c 2.97,0 5.94,0 9,0 -1.768541,9.4456149 -3.885161,18.684741 -6.440918,27.953125 -1.026537,3.75829 -2.008502,7.52833 -2.996582,11.296875 -0.207056,0.785845 -0.414111,1.571689 -0.627441,2.381348 -1.120398,4.253027 -2.230849,8.508414 -3.32959,12.767089 -0.340434,1.312427 -0.340434,1.312427 -0.687744,2.651368 C 72.479516,58.73983 72.04404,60.430567 71.611572,62.12207 70.112482,67.887518 70.112482,67.887518 69,69 67.48072,69.0718 65.958325,69.08392 64.4375,69.0625 63.198066,69.04896 63.198066,69.04896 61.933594,69.03516 60.976465,69.017754 60.976465,69.017754 60,69 57.436171,63.450065 55.783509,57.909221 54.25,52 52.037319,43.684157 49.687781,35.421586 47.1875,27.1875 46.734556,25.684131 46.734556,25.684131 46.272461,24.150391 45.990479,23.228066 45.708496,22.305742 45.417969,21.355469 45.168132,20.537156 44.918296,19.718843 44.660889,18.875732 44.15605,17.01207 44.15605,17.01207 43,16 c -0.175393,0.636877 -0.350786,1.273755 -0.531494,1.929932 -3.577774,12.960883 -7.248482,25.880327 -11.246094,38.71875 -0.277068,0.894528 -0.554136,1.789057 -0.8396,2.710693 -0.243471,0.778271 -0.486943,1.556543 -0.737792,2.358398 C 28.963818,64.128021 28.460573,66.538897 28,69 24.7,69 21.4,69 18,69 14.067687,56.315119 10.823338,43.488693 7.640625,30.597656 6.377235,25.486998 5.0679896,20.392675 3.6875,15.3125 2.3111,10.232225 1.0842949,5.1504007 0,0 Z"
       fill="#37f214"
       transform="translate(160,52)"
       id="path3" /><path
       d="m 0,0 c 3.63,0 7.26,0 11,0 2.47336,2.4968838 3.516258,3.9148689 5,6.9375 0.824486,1.4843732 1.65139,2.9674059 2.480469,4.449219 0.412983,0.767475 0.825967,1.534951 1.251465,2.325683 C 21.747649,17.348763 24.02806,20.775403 26.3125,24.25 32.541667,33.833333 38.770833,43.416667 45,53 45.33,35.51 45.66,18.02 46,0 c 2.64,0 5.28,0 8,0 0,22.44 0,44.88 0,68 -3.63,0 -7.26,0 -11,0 C 40.463231,65.312233 39.310619,63.64473 37.75,60.4375 36.846111,58.782435 35.936979,57.130226 35.023437,55.480469 34.544873,54.594077 34.066309,53.707686 33.573242,52.794434 30.754855,47.788341 27.547988,43.036096 24.375,38.25 18.862911,29.866597 13.426087,21.440579 8,13 8,31.48 8,49.96 8,69 5.36,69 2.72,69 0,69 0,46.23 0,23.46 0,0 Z"
       fill="#38f814"
       transform="translate(258,53)"
       id="path4-9" /><path
       d="m 0,0 c 9.57,0 19.14,0 29,0 0,17.82 0,35.64 0,54 C 19.43,54 9.86,54 0,54 0,36.18 0,18.36 0,0 Z"
       fill="#181a17"
       transform="translate(46,60)"
       id="path5" /><path
       d="M 0,0 C 1.32,0.33 2.64,0.66 4,1 4,1.66 4,2.32 4,3 4.5942578,3.1469531 5.1885156,3.2939063 5.8007812,3.4453125 12.808423,5.3416261 18.755308,8.3315405 25,12 c 0,0.66 0,1.32 0,2 0.571055,0.135352 1.142109,0.270703 1.730469,0.410156 C 34.480134,16.467699 41.082233,20.042343 48,24 c 0,0.66 0,1.32 0,2 2.97,0.99 5.94,1.98 9,3 0,2.31 0,4.62 0,7 -2.647389,1.460628 -3.894483,2 -7,2 0,0.66 0,1.32 0,2 -1.601499,0.67305 -3.20631,1.338222 -4.8125,2 -0.89332,0.37125 -1.786641,0.7425 -2.707031,1.125 C 40,44 40,44 37,44 c 0,0.66 0,1.32 0,2 -0.663867,0.253945 -1.327734,0.507891 -2.011719,0.769531 C 29.54465,48.854575 29.54465,48.854575 24.4375,51.625 20.845092,53.651486 17.027807,54.25411 13,55 c 0,0.66 0,1.32 0,2 -1.603733,0.646909 -3.2080031,1.292488 -4.8125,1.9375 C 6.8475195,59.476973 6.8475195,59.476973 5.4804687,60.027344 3.6729091,60.736135 1.8419259,61.386025 0,62 0,58.37 0,54.74 0,51 c 5,-2 5,-2 9,-2 0,-0.66 0,-1.32 0,-2 3.370974,-1.498211 5.204421,-2 9,-2 0,-0.66 0,-1.32 0,-2 1.912821,-0.842123 3.830425,-1.673389 5.75,-2.5 1.067344,-0.464062 2.134687,-0.928125 3.234375,-1.40625 C 30,38 30,38 34,38 c 0,-0.66 0,-1.32 0,-2 0.957129,-0.290039 0.957129,-0.290039 1.933594,-0.585938 0.826289,-0.26039 1.652578,-0.520781 2.503906,-0.789062 0.823711,-0.255234 1.647422,-0.510469 2.496094,-0.773438 C 43.17798,33.191178 43.17798,33.191178 44,31 42.758875,30.625004 42.758875,30.625004 41.492676,30.242432 37.513467,28.826928 33.870804,27.042388 30.117187,25.121094 29.012154,24.562897 29.012154,24.562897 27.884796,23.993423 25.546214,22.811984 23.210307,21.625398 20.875,20.4375 17.791375,18.869077 14.705137,17.305982 11.617188,15.746094 10.912946,15.385675 10.208705,15.025256 9.4831238,14.653915 6.2915514,13.042181 3.4910388,11.87276 0,11 0,7.37 0,3.74 0,0 Z"
       fill="#36f014"
       transform="translate(96,50)"
       id="path6" /></g></svg>
